<?xml version="1.0" encoding="utf-8"?>
<!-- Generator: Adobe Illustrator 26.1.0, SVG Export Plug-In . SVG Version: 6.00 Build 0)  -->
<svg version="1.1" id="a" xmlns="http://www.w3.org/2000/svg" xmlns:xlink="http://www.w3.org/1999/xlink" x="0px" y="0px"
	 viewBox="0 0 60.2 18.1" style="enable-background:new 0 0 60.2 18.1;" xml:space="preserve">
<style type="text/css">
	.st0{opacity:0.2;}
	.st1{fill-rule:evenodd;clip-rule:evenodd;fill:url(#SVGID_1_);}
	.st2{fill-rule:evenodd;clip-rule:evenodd;fill:url(#SVGID_00000134931953374240788260000016343437937049563583_);}
	.st3{fill-rule:evenodd;clip-rule:evenodd;fill:url(#SVGID_00000018228285111298840790000009587660623537928372_);}
	.st4{fill-rule:evenodd;clip-rule:evenodd;fill:url(#SVGID_00000141443088536296819170000014647980226744651182_);}
	.st5{fill-rule:evenodd;clip-rule:evenodd;fill:url(#SVGID_00000029037402443849195540000009322966598875777215_);}
	.st6{fill-rule:evenodd;clip-rule:evenodd;fill:url(#SVGID_00000052082464696177889760000007345915238521190032_);}
	.st7{fill-rule:evenodd;clip-rule:evenodd;fill:url(#SVGID_00000116213112156100035270000016516479151399423930_);}
	.st8{fill-rule:evenodd;clip-rule:evenodd;fill:url(#SVGID_00000058573769346210993870000007421884010358150026_);}
	.st9{fill-rule:evenodd;clip-rule:evenodd;fill:url(#SVGID_00000130637478208325300820000006206524615662201019_);}
	.st10{fill-rule:evenodd;clip-rule:evenodd;fill:url(#SVGID_00000043449545682055136660000004986307801882543548_);}
	.st11{fill-rule:evenodd;clip-rule:evenodd;fill:url(#SVGID_00000150098187216779669550000006812848217342712246_);}
	.st12{fill-rule:evenodd;clip-rule:evenodd;fill:url(#SVGID_00000061445829226255094530000003337130379769710232_);}
	.st13{fill:#FFFFFF;}
	.st14{font-family:'Rubik-Regular';}
	.st15{font-size:12px;}
</style>
<g class="st0">
	<path d="M14.1,0H4.2C1.9,0,0,1.8,0,4.1V14c0,2.3,1.9,4.1,4.2,4.1h9.9c2.3,0,4.2-1.8,4.2-4.1V4C18.3,1.7,16.4,0,14.1,0z"/>
</g>
<g>
	
		<linearGradient id="SVGID_1_" gradientUnits="userSpaceOnUse" x1="-3753.4397" y1="138.5511" x2="-3753.4397" y2="137.5411" gradientTransform="matrix(-5.82 0 0 -9 -21838.3711 1256)">
		<stop  offset="0" style="stop-color:#6100DF"/>
		<stop  offset="1" style="stop-color:#8C00F3"/>
	</linearGradient>
	<path class="st1" d="M9.3,18H4l5.3-9.1V18L9.3,18z"/>
	
		<linearGradient id="SVGID_00000054265412689725608000000015704578818598209681_" gradientUnits="userSpaceOnUse" x1="-3653.1555" y1="137.4418" x2="-3654.2053" y2="138.5318" gradientTransform="matrix(-10.07 0 0 -9 -36788.4297 1256)">
		<stop  offset="0" style="stop-color:#B200BB"/>
		<stop  offset="1" style="stop-color:#7F00D4"/>
	</linearGradient>
	<path style="fill-rule:evenodd;clip-rule:evenodd;fill:url(#SVGID_00000054265412689725608000000015704578818598209681_);" d="
		M4,18L4,18c-2.2,0-3.9-1.7-3.9-3.8v-0.1l9.1-5.2L4,18C4,18,4,18,4,18z"/>
	
		<linearGradient id="SVGID_00000151532449066761949040000017288743325192323496_" gradientUnits="userSpaceOnUse" x1="-3651.4976" y1="-164.2421" x2="-3655.8777" y2="-161.9321" gradientTransform="matrix(-10.07 0 0 -5.19 -36788.4297 -835.9099)">
		<stop  offset="0" style="stop-color:#F61B4A"/>
		<stop  offset="1" style="stop-color:#FF1365"/>
	</linearGradient>
	<path style="fill-rule:evenodd;clip-rule:evenodd;fill:url(#SVGID_00000151532449066761949040000017288743325192323496_);" d="
		M9.3,9l-9.1,5.2V9H9.3z"/>
	
		<linearGradient id="SVGID_00000143600161809401948960000009690233555381246606_" gradientUnits="userSpaceOnUse" x1="-3755.5405" y1="139.2722" x2="-3756.0305" y2="137.9622" gradientTransform="matrix(-5.81 0 0 -9 -21811.6699 1256)">
		<stop  offset="0" style="stop-color:#1A31FD"/>
		<stop  offset="1" style="stop-color:#4677FD"/>
	</linearGradient>
	<path style="fill-rule:evenodd;clip-rule:evenodd;fill:url(#SVGID_00000143600161809401948960000009690233555381246606_);" d="
		M14.4,18H9.1V8.9L14.4,18L14.4,18z"/>
	
		<linearGradient id="SVGID_00000128477172403317391880000007300335857335693480_" gradientUnits="userSpaceOnUse" x1="-3653.5176" y1="137.5728" x2="-3652.4175" y2="138.6028" gradientTransform="matrix(-10.08 0 0 -9 -36809.1406 1256)">
		<stop  offset="0" style="stop-color:#1BA7FF"/>
		<stop  offset="1" style="stop-color:#0953FF"/>
	</linearGradient>
	<path style="fill-rule:evenodd;clip-rule:evenodd;fill:url(#SVGID_00000128477172403317391880000007300335857335693480_);" d="
		M18.3,14.3L18.3,14.3c0,2.1-1.7,3.8-3.8,3.8h-0.1L9.1,9L18.3,14.3L18.3,14.3z"/>
	
		<linearGradient id="SVGID_00000003102779947330541830000002235241331351574716_" gradientUnits="userSpaceOnUse" x1="-3753.9685" y1="140.3606" x2="-3752.2385" y2="136.0206" gradientTransform="matrix(-5.82 0 0 -9 -21832.1602 1247)">
		<stop  offset="0" style="stop-color:#F9F26E"/>
		<stop  offset="1" style="stop-color:#FFF350"/>
	</linearGradient>
	<path style="fill-rule:evenodd;clip-rule:evenodd;fill:url(#SVGID_00000003102779947330541830000002235241331351574716_);" d="
		M14.4,0L9.1,9.1V0H14.4z"/>
	
		<linearGradient id="SVGID_00000126311710556674485320000004874678788673331621_" gradientUnits="userSpaceOnUse" x1="-3653.4851" y1="138.5021" x2="-3652.3652" y2="137.3821" gradientTransform="matrix(-10.08 0 0 -9 -36809.1406 1247)">
		<stop  offset="0" style="stop-color:#F3F314"/>
		<stop  offset="1" style="stop-color:#D8DC05"/>
	</linearGradient>
	<path style="fill-rule:evenodd;clip-rule:evenodd;fill:url(#SVGID_00000126311710556674485320000004874678788673331621_);" d="
		M14.5,0c2.1,0,3.8,1.6,3.8,3.7v0.1L9.2,9L14.5,0L14.5,0z"/>
	
		<linearGradient id="SVGID_00000006688813534596284290000007913484613869561993_" gradientUnits="userSpaceOnUse" x1="-3653.1179" y1="138.7127" x2="-3654.2378" y2="137.5527" gradientTransform="matrix(-10.07 0 0 -9 -36788.4297 1247)">
		<stop  offset="0" style="stop-color:#FFCD50"/>
		<stop  offset="0.99" style="stop-color:#FFBE22"/>
	</linearGradient>
	<path style="fill-rule:evenodd;clip-rule:evenodd;fill:url(#SVGID_00000006688813534596284290000007913484613869561993_);" d="M4,0
		l5.3,9.1L0.2,3.9V3.7C0.3,1.6,2,0,4,0L4,0z"/>
	
		<linearGradient id="SVGID_00000095332097513583678770000016083215559847831705_" gradientUnits="userSpaceOnUse" x1="-3751.9868" y1="137.2815" x2="-3755.9568" y2="139.3814" gradientTransform="matrix(-5.82 0 0 -9 -21838.3711 1247)">
		<stop  offset="0" style="stop-color:#FAD522"/>
		<stop  offset="1" style="stop-color:#FAE11C"/>
	</linearGradient>
	<path style="fill-rule:evenodd;clip-rule:evenodd;fill:url(#SVGID_00000095332097513583678770000016083215559847831705_);" d="
		M9.3,0v9.1L4,0H9.3z"/>
	
		<linearGradient id="SVGID_00000089545570222399938710000006985982408436169898_" gradientUnits="userSpaceOnUse" x1="-3652.4875" y1="-166.2201" x2="-3654.6177" y2="-161.9301" gradientTransform="matrix(-10.07 0 0 -5.19 -36788.4297 -843.1699)">
		<stop  offset="0" style="stop-color:#FF8637"/>
		<stop  offset="1" style="stop-color:#FD6E1B"/>
	</linearGradient>
	<path style="fill-rule:evenodd;clip-rule:evenodd;fill:url(#SVGID_00000089545570222399938710000006985982408436169898_);" d="
		M9.3,9H0.2V3.8L9.3,9L9.3,9z"/>
	
		<linearGradient id="SVGID_00000163047940149290462340000011115891391546547883_" gradientUnits="userSpaceOnUse" x1="-3655.2852" y1="-163.1259" x2="-3651.7952" y2="-162.0659" gradientTransform="matrix(-10.08 0 0 -5.2 -36809.1406 -833.8602)">
		<stop  offset="0" style="stop-color:#01CB75"/>
		<stop  offset="1" style="stop-color:#02AA6B"/>
	</linearGradient>
	<path style="fill-rule:evenodd;clip-rule:evenodd;fill:url(#SVGID_00000163047940149290462340000011115891391546547883_);" d="
		M18.3,9v5.2L9.2,9H18.3z"/>
	
		<linearGradient id="SVGID_00000114772344231840684680000016946178417924801981_" gradientUnits="userSpaceOnUse" x1="-3655.1348" y1="-161.7307" x2="-3651.2849" y2="-163.7707" gradientTransform="matrix(-10.08 0 0 -5.2 -36809.1406 -839.0602)">
		<stop  offset="0" style="stop-color:#97E723"/>
		<stop  offset="1" style="stop-color:#7ACD00"/>
	</linearGradient>
	<path style="fill-rule:evenodd;clip-rule:evenodd;fill:url(#SVGID_00000114772344231840684680000016946178417924801981_);" d="
		M18.3,9H9.2l9.1-5.2V9L18.3,9z"/>
</g>
<g transform="translate(19.08 13.45)">
	<text transform="matrix(1 0 0 1 0.765 -1.708984e-04)" class="st13 st14 st15">  TopAI </text>
</g>
</svg>
