<?xml version="1.0" encoding="utf-8"?>
<!-- Generator: Adobe Illustrator 26.1.0, SVG Export Plug-In . SVG Version: 6.00 Build 0)  -->
<svg version="1.1" id="a" xmlns="http://www.w3.org/2000/svg" xmlns:xlink="http://www.w3.org/1999/xlink" x="0px" y="0px"
	 viewBox="0 0 60.2 18.1" style="enable-background:new 0 0 60.2 18.1;" xml:space="preserve">
<style type="text/css">
	.st0{opacity:0.2;}
	.st1{fill-rule:evenodd;clip-rule:evenodd;fill:url(#SVGID_1_);}
	.st2{fill-rule:evenodd;clip-rule:evenodd;fill:url(#SVGID_00000101094840847168014960000011414666411262615462_);}
	.st3{fill-rule:evenodd;clip-rule:evenodd;fill:url(#SVGID_00000110445766370572202950000005873006051344391354_);}
	.st4{fill-rule:evenodd;clip-rule:evenodd;fill:url(#SVGID_00000049933840978546634410000004409518199674003592_);}
	.st5{fill-rule:evenodd;clip-rule:evenodd;fill:url(#SVGID_00000079477753712487560910000009951345291041007488_);}
	.st6{fill-rule:evenodd;clip-rule:evenodd;fill:url(#SVGID_00000095301467303465792700000000937953892428145543_);}
	.st7{fill-rule:evenodd;clip-rule:evenodd;fill:url(#SVGID_00000125600781076669371940000013441001237750336937_);}
	.st8{fill-rule:evenodd;clip-rule:evenodd;fill:url(#SVGID_00000082365178543783510100000010929370349749745040_);}
	.st9{fill-rule:evenodd;clip-rule:evenodd;fill:url(#SVGID_00000098206370700739800750000004752978416514445975_);}
	.st10{fill-rule:evenodd;clip-rule:evenodd;fill:url(#SVGID_00000036949711428096682660000009522690885322817213_);}
	.st11{fill-rule:evenodd;clip-rule:evenodd;fill:url(#SVGID_00000065770488890832687080000009647811547572273073_);}
	.st12{fill-rule:evenodd;clip-rule:evenodd;fill:url(#SVGID_00000074432940869050442250000016501551288205545644_);}
	.st13{font-family:'Rubik-Regular';}
	.st14{font-size:12px;}
</style>
<g class="st0">
	<path d="M14.1,0H4.2C1.9,0,0,1.8,0,4.1V14c0,2.3,1.9,4.1,4.2,4.1h9.9c2.3,0,4.2-1.8,4.2-4.1V4C18.3,1.7,16.4,0,14.1,0z"/>
</g>
<g>
	
		<linearGradient id="SVGID_1_" gradientUnits="userSpaceOnUse" x1="-3156.9829" y1="352.5589" x2="-3156.9829" y2="353.5689" gradientTransform="matrix(-5.82 0 0 9 -18366.9902 -3164)">
		<stop  offset="0" style="stop-color:#6100DF"/>
		<stop  offset="1" style="stop-color:#8C00F3"/>
	</linearGradient>
	<path class="st1" d="M9.3,18H4l5.3-9.1V18L9.3,18z"/>
	
		<linearGradient id="SVGID_00000054263040441954679730000006684741447243010748_" gradientUnits="userSpaceOnUse" x1="-3093.6079" y1="353.6707" x2="-3094.658" y2="352.5807" gradientTransform="matrix(-10.07 0 0 9 -31153.7988 -3164)">
		<stop  offset="0" style="stop-color:#B200BB"/>
		<stop  offset="1" style="stop-color:#7F00D4"/>
	</linearGradient>
	<path style="fill-rule:evenodd;clip-rule:evenodd;fill:url(#SVGID_00000054263040441954679730000006684741447243010748_);" d="
		M4,18L4,18c-2.2,0-3.9-1.7-3.9-3.8v-0.1l9.1-5.2L4,18L4,18z"/>
	
		<linearGradient id="SVGID_00000040562541257595689270000017704079184196427924_" gradientUnits="userSpaceOnUse" x1="-3091.9487" y1="612.124" x2="-3096.3286" y2="609.814" gradientTransform="matrix(-10.07 0 0 5.19 -31153.7988 -3160.4102)">
		<stop  offset="0" style="stop-color:#F61B4A"/>
		<stop  offset="1" style="stop-color:#FF1365"/>
	</linearGradient>
	<path style="fill-rule:evenodd;clip-rule:evenodd;fill:url(#SVGID_00000040562541257595689270000017704079184196427924_);" d="
		M9.3,9l-9.1,5.2V9H9.3z"/>
	
		<linearGradient id="SVGID_00000094600235054765924900000003180147175366997684_" gradientUnits="userSpaceOnUse" x1="-3158.9348" y1="351.8442" x2="-3159.4248" y2="353.1542" gradientTransform="matrix(-5.81 0 0 9 -18345.3789 -3164)">
		<stop  offset="0" style="stop-color:#1A31FD"/>
		<stop  offset="1" style="stop-color:#4677FD"/>
	</linearGradient>
	<path style="fill-rule:evenodd;clip-rule:evenodd;fill:url(#SVGID_00000094600235054765924900000003180147175366997684_);" d="
		M14.4,18H9.1V8.9L14.4,18L14.4,18z"/>
	
		<linearGradient id="SVGID_00000075848257573344632560000002451139720779498635_" gradientUnits="userSpaceOnUse" x1="-3094.0229" y1="353.5396" x2="-3092.9229" y2="352.5096" gradientTransform="matrix(-10.08 0 0 9 -31169.4199 -3164)">
		<stop  offset="0" style="stop-color:#1BA7FF"/>
		<stop  offset="1" style="stop-color:#0953FF"/>
	</linearGradient>
	<path style="fill-rule:evenodd;clip-rule:evenodd;fill:url(#SVGID_00000075848257573344632560000002451139720779498635_);" d="
		M18.3,14.3L18.3,14.3c0,2.1-1.7,3.8-3.8,3.8h-0.1L9.1,9L18.3,14.3L18.3,14.3z"/>
	
		<linearGradient id="SVGID_00000173846077758807434680000000552402817001179561_" gradientUnits="userSpaceOnUse" x1="-3157.5107" y1="350.7529" x2="-3155.7808" y2="355.0929" gradientTransform="matrix(-5.82 0 0 9 -18360.7812 -3173)">
		<stop  offset="0" style="stop-color:#F9F26E"/>
		<stop  offset="1" style="stop-color:#FFF350"/>
	</linearGradient>
	<path style="fill-rule:evenodd;clip-rule:evenodd;fill:url(#SVGID_00000173846077758807434680000000552402817001179561_);" d="
		M14.4,0L9.1,9.1V0H14.4z"/>
	
		<linearGradient id="SVGID_00000170238277937829652190000002715590283648707466_" gradientUnits="userSpaceOnUse" x1="-3093.9924" y1="352.6054" x2="-3092.8726" y2="353.7254" gradientTransform="matrix(-10.08 0 0 9 -31169.4199 -3173)">
		<stop  offset="0" style="stop-color:#F3F314"/>
		<stop  offset="1" style="stop-color:#D8DC05"/>
	</linearGradient>
	<path style="fill-rule:evenodd;clip-rule:evenodd;fill:url(#SVGID_00000170238277937829652190000002715590283648707466_);" d="
		M14.5,0c2.1,0,3.8,1.6,3.8,3.7v0.1L9.2,9L14.5,0L14.5,0z"/>
	
		<linearGradient id="SVGID_00000178193352613645863620000015325620546146902972_" gradientUnits="userSpaceOnUse" x1="-3093.5688" y1="352.3956" x2="-3094.689" y2="353.5556" gradientTransform="matrix(-10.07 0 0 9 -31153.7988 -3173)">
		<stop  offset="0" style="stop-color:#FFCD50"/>
		<stop  offset="0.99" style="stop-color:#FFBE22"/>
	</linearGradient>
	<path style="fill-rule:evenodd;clip-rule:evenodd;fill:url(#SVGID_00000178193352613645863620000015325620546146902972_);" d="M4,0
		l5.3,9.1L0.2,3.9V3.7C0.3,1.6,2,0,4,0L4,0z"/>
	
		<linearGradient id="SVGID_00000027583453419645305080000011755408668010939052_" gradientUnits="userSpaceOnUse" x1="-3155.532" y1="353.8285" x2="-3159.502" y2="351.7285" gradientTransform="matrix(-5.82 0 0 9 -18366.9902 -3173)">
		<stop  offset="0" style="stop-color:#FAD522"/>
		<stop  offset="1" style="stop-color:#FAE11C"/>
	</linearGradient>
	<path style="fill-rule:evenodd;clip-rule:evenodd;fill:url(#SVGID_00000027583453419645305080000011755408668010939052_);" d="
		M9.3,0v9.1L4,0H9.3z"/>
	
		<linearGradient id="SVGID_00000065782200422108007730000007870402206012226967_" gradientUnits="userSpaceOnUse" x1="-3092.9412" y1="614.1005" x2="-3095.0713" y2="609.8105" gradientTransform="matrix(-10.07 0 0 5.19 -31153.7988 -3167.6699)">
		<stop  offset="0" style="stop-color:#FF8637"/>
		<stop  offset="1" style="stop-color:#FD6E1B"/>
	</linearGradient>
	<path style="fill-rule:evenodd;clip-rule:evenodd;fill:url(#SVGID_00000065782200422108007730000007870402206012226967_);" d="
		M9.3,9H0.2V3.8L9.3,9L9.3,9z"/>
	
		<linearGradient id="SVGID_00000104708320325003276550000015854655201222633658_" gradientUnits="userSpaceOnUse" x1="-3095.7864" y1="611.202" x2="-3092.2964" y2="610.142" gradientTransform="matrix(-10.08 0 0 5.2 -31169.4199 -3163.8599)">
		<stop  offset="0" style="stop-color:#01CB75"/>
		<stop  offset="1" style="stop-color:#02AA6B"/>
	</linearGradient>
	<path style="fill-rule:evenodd;clip-rule:evenodd;fill:url(#SVGID_00000104708320325003276550000015854655201222633658_);" d="
		M18.3,9v5.2L9.2,9H18.3z"/>
	
		<linearGradient id="SVGID_00000153707538231501976410000000696431635758656641_" gradientUnits="userSpaceOnUse" x1="-3095.6394" y1="609.8072" x2="-3091.7893" y2="611.8472" gradientTransform="matrix(-10.08 0 0 5.2 -31169.4199 -3169.0598)">
		<stop  offset="0" style="stop-color:#97E723"/>
		<stop  offset="1" style="stop-color:#7ACD00"/>
	</linearGradient>
	<path style="fill-rule:evenodd;clip-rule:evenodd;fill:url(#SVGID_00000153707538231501976410000000696431635758656641_);" d="
		M18.3,9H9.2l9.1-5.2V9L18.3,9z"/>
</g>
<text transform="matrix(1 0 0 1 19.08 13.45)" class="st13 st14">  TopAI </text>
</svg>
